##
##  Three-D Library generated .obj file
##  cube
##

mtllib cube.mtl
usemtl red

# 0 materials

v -1.000000 -1.000000 1.000000
v -1.000000 1.000000 1.000000
v 1.000000 1.000000 1.000000
v 1.000000 -1.000000 1.000000
v -1.000000 -1.000000 -1.000000
v -1.000000 1.000000 -1.000000
v 1.000000 1.000000 -1.000000
v 1.000000 -1.000000 -1.000000
# 8 vertices

vn 0.577350 0.577350 -0.577350
vn 0.577350 -0.577350 -0.577350
vn -0.577350 -0.577350 -0.577350
vn -0.577350 0.577350 -0.577350
vn 0.577350 0.577350 0.577350
vn 0.577350 -0.577350 0.577350
vn -0.577350 -0.577350 0.577350
vn -0.577350 0.577350 0.577350
# 8 vertex normals

# 0 texture vertices

g default
f 1//1 2//2 3//3
f 1//1 3//3 4//4
f 5//5 6//6 2//2
f 5//5 2//2 1//1
f 6//6 7//7 3//3
f 6//6 3//3 2//2
f 7//7 8//8 4//4
f 7//7 4//4 3//3
f 8//8 5//5 1//1
f 8//8 1//1 4//4
f 5//5 8//8 7//7
f 5//5 7//7 6//6
# 12 faces

